<svg xmlns="http://www.w3.org/2000/svg" viewBox="0 0 120 120" role="img" aria-label="Detective Waffles the bear">
  <circle cx="60" cy="60" r="58" fill="#fdeccd"/>
  <circle cx="28" cy="30" r="14" fill="#b97b3f"/>
  <circle cx="92" cy="30" r="14" fill="#b97b3f"/>
  <circle cx="28" cy="30" r="7" fill="#e6a866"/>
  <circle cx="92" cy="30" r="7" fill="#e6a866"/>
  <circle cx="60" cy="62" r="38" fill="#b97b3f"/>
  <ellipse cx="60" cy="74" rx="20" ry="15" fill="#e6a866"/>
  <circle cx="47" cy="54" r="5" fill="#3b2716"/>
  <circle cx="73" cy="54" r="5" fill="#3b2716"/>
  <circle cx="48.5" cy="52.5" r="1.6" fill="#fff"/>
  <circle cx="74.5" cy="52.5" r="1.6" fill="#fff"/>
  <ellipse cx="60" cy="68" rx="6" ry="4.5" fill="#3b2716"/>
  <path d="M52 80 Q60 86 68 80" stroke="#3b2716" stroke-width="3" fill="none" stroke-linecap="round"/>
  <path d="M22 36 Q60 12 98 36 L98 30 Q60 4 22 30 Z" fill="#14a5e4"/>
  <rect x="38" y="16" width="44" height="14" rx="7" fill="#14a5e4"/>
  <rect x="18" y="32" width="84" height="7" rx="3.5" fill="#0b7cb0"/>
  <circle cx="88" cy="88" r="14" fill="none" stroke="#0b7cb0" stroke-width="5"/>
  <line x1="98" y1="98" x2="110" y2="110" stroke="#0b7cb0" stroke-width="6" stroke-linecap="round"/>
  <circle cx="88" cy="88" r="9" fill="#bfe9fb" opacity="0.7"/>
</svg>
